<svg width="124" height="123" viewBox="0 0 124 123" fill="current" xmlns="http://www.w3.org/2000/svg">
<path fill-rule="evenodd" clip-rule="evenodd" d="M108.627 2.92893C104.722 -0.976311 98.3906 -0.976308 94.4853 2.92893L61.9728 35.4415L29.4602 2.92894C25.5549 -0.976307 19.2233 -0.976306 15.318 2.92894L3.07108 15.1759C-0.83416 19.0811 -0.834158 25.4128 3.07109 29.318L35.5837 61.8306L3.73083 93.6834C-0.174414 97.5887 -0.174413 103.92 3.73083 107.826L15.9778 120.073C19.883 123.978 26.2147 123.978 30.1199 120.073L61.9728 88.2197L93.8256 120.073C97.7308 123.978 104.062 123.978 107.968 120.073L120.215 107.826C124.12 103.92 124.12 97.5887 120.215 93.6834L88.3619 61.8306L120.874 29.318C124.78 25.4128 124.78 19.0811 120.874 15.1759L108.627 2.92893Z" />
</svg>
