<svg width="273" height="137" viewBox="0 0 273 137" fill="none" xmlns="http://www.w3.org/2000/svg">
<path fill-rule="evenodd" clip-rule="evenodd" d="M68.5 28C46.1325 28 28 46.1325 28 68.5C28 90.8675 46.1325 109 68.5 109C90.8675 109 109 90.8675 109 68.5C109 46.1325 90.8675 28 68.5 28ZM0 68.5C0 30.6685 30.6685 0 68.5 0C106.332 0 137 30.6685 137 68.5C137 106.332 106.332 137 68.5 137C30.6685 137 0 106.332 0 68.5Z" fill="#5EAD0F"/>
<path fill-rule="evenodd" clip-rule="evenodd" d="M257.485 8.92893C253.58 5.02369 247.248 5.02369 243.343 8.92893L210.831 41.4415L178.318 8.92894C174.413 5.02369 168.081 5.02369 164.176 8.92894L151.929 21.1759C148.024 25.0811 148.024 31.4128 151.929 35.318L184.442 67.8306L152.589 99.6834C148.683 103.589 148.683 109.92 152.589 113.826L164.836 126.073C168.741 129.978 175.073 129.978 178.978 126.073L210.831 94.2197L242.683 126.073C246.589 129.978 252.92 129.978 256.826 126.073L269.073 113.826C272.978 109.92 272.978 103.589 269.073 99.6834L237.22 67.8306L269.732 35.318C273.638 31.4128 273.638 25.0811 269.732 21.1759L257.485 8.92893Z" fill="#25AA52"/>
</svg>
