<svg width="124" height="123" viewBox="0 0 124 123" fill="initial" stroke="none"  xmlns="http://www.w3.org/2000/svg">
<mask id="path-1-inside-1_351_9" fill="white">
<path fill-rule="evenodd" clip-rule="evenodd" d="M108.627 2.92893C104.722 -0.976312 98.3906 -0.976309 94.4853 2.92893L61.9728 35.4415L29.4602 2.92894C25.5549 -0.976308 19.2233 -0.976307 15.318 2.92894L3.07108 15.1759C-0.834161 19.0811 -0.834159 25.4128 3.07108 29.318L35.5837 61.8306L3.73083 93.6834C-0.174414 97.5887 -0.174414 103.92 3.73083 107.826L15.9778 120.073C19.883 123.978 26.2147 123.978 30.1199 120.073L61.9728 88.2197L93.8256 120.073C97.7308 123.978 104.062 123.978 107.968 120.073L120.215 107.826C124.12 103.92 124.12 97.5887 120.215 93.6834L88.3619 61.8306L120.874 29.318C124.78 25.4128 124.78 19.0811 120.874 15.1759L108.627 2.92893Z"/>
</mask>
<path d="M94.4853 2.92893L95.1924 3.63604L94.4853 2.92893ZM108.627 2.92893L109.335 2.22182L109.335 2.22182L108.627 2.92893ZM61.9728 35.4415L61.2657 36.1486L61.9728 36.8557L62.6799 36.1486L61.9728 35.4415ZM29.4602 2.92894L30.1673 2.22183L30.1673 2.22183L29.4602 2.92894ZM15.318 2.92894L14.6109 2.22183L14.6109 2.22183L15.318 2.92894ZM3.07108 15.1759L3.77819 15.883L3.77819 15.883L3.07108 15.1759ZM3.07108 29.318L2.36398 30.0251L3.07108 29.318ZM35.5837 61.8306L36.2908 62.5377L36.9979 61.8306L36.2908 61.1235L35.5837 61.8306ZM3.73083 93.6834L4.43794 94.3906L3.73083 93.6834ZM3.73083 107.826L3.02372 108.533L3.02372 108.533L3.73083 107.826ZM15.9778 120.073L16.6849 119.365L16.6849 119.365L15.9778 120.073ZM30.1199 120.073L30.827 120.78L30.827 120.78L30.1199 120.073ZM61.9728 88.2197L62.6799 87.5126L61.9728 86.8055L61.2657 87.5126L61.9728 88.2197ZM93.8256 120.073L93.1185 120.78L93.1185 120.78L93.8256 120.073ZM107.968 120.073L108.675 120.78L108.675 120.78L107.968 120.073ZM120.215 107.826L119.508 107.118L119.508 107.118L120.215 107.826ZM88.3619 61.8306L87.6547 61.1235L86.9476 61.8306L87.6547 62.5377L88.3619 61.8306ZM120.874 29.318L120.167 28.6109L120.167 28.6109L120.874 29.318ZM120.874 15.1759L120.167 15.883L120.874 15.1759ZM95.1924 3.63604C98.7072 0.121321 104.406 0.121319 107.92 3.63604L109.335 2.22182C105.039 -2.07394 98.074 -2.07394 93.7782 2.22183L95.1924 3.63604ZM62.6799 36.1486L95.1924 3.63604L93.7782 2.22183L61.2657 34.7344L62.6799 36.1486ZM28.7531 3.63604L61.2657 36.1486L62.6799 34.7344L30.1673 2.22183L28.7531 3.63604ZM16.0251 3.63604C19.5399 0.121324 25.2384 0.121324 28.7531 3.63604L30.1673 2.22183C25.8715 -2.07394 18.9067 -2.07394 14.6109 2.22183L16.0251 3.63604ZM3.77819 15.883L16.0251 3.63604L14.6109 2.22183L2.36397 14.4688L3.77819 15.883ZM3.77819 28.6109C0.263472 25.0962 0.26347 19.3977 3.77819 15.883L2.36397 14.4688C-1.93179 18.7646 -1.93179 25.7294 2.36398 30.0251L3.77819 28.6109ZM36.2908 61.1235L3.77819 28.6109L2.36398 30.0251L34.8766 62.5377L36.2908 61.1235ZM4.43794 94.3906L36.2908 62.5377L34.8766 61.1235L3.02372 92.9763L4.43794 94.3906ZM4.43794 107.118C0.923217 103.604 0.923217 97.9053 4.43794 94.3906L3.02372 92.9763C-1.27205 97.2721 -1.27204 104.237 3.02372 108.533L4.43794 107.118ZM16.6849 119.365L4.43794 107.118L3.02372 108.533L15.2707 120.78L16.6849 119.365ZM29.4128 119.365C25.8981 122.88 20.1996 122.88 16.6849 119.365L15.2707 120.78C19.5664 125.075 26.5313 125.075 30.827 120.78L29.4128 119.365ZM61.2657 87.5126L29.4128 119.365L30.827 120.78L62.6799 88.9268L61.2657 87.5126ZM94.5327 119.365L62.6799 87.5126L61.2657 88.9268L93.1185 120.78L94.5327 119.365ZM107.261 119.365C103.746 122.88 98.0474 122.88 94.5327 119.365L93.1185 120.78C97.4143 125.075 104.379 125.075 108.675 120.78L107.261 119.365ZM119.508 107.118L107.261 119.365L108.675 120.78L120.922 108.533L119.508 107.118ZM119.508 94.3906C123.022 97.9053 123.022 103.604 119.508 107.118L120.922 108.533C125.218 104.237 125.218 97.2721 120.922 92.9763L119.508 94.3906ZM87.6547 62.5377L119.508 94.3906L120.922 92.9763L89.069 61.1235L87.6547 62.5377ZM120.167 28.6109L87.6547 61.1235L89.069 62.5377L121.582 30.0251L120.167 28.6109ZM120.167 15.883C123.682 19.3977 123.682 25.0962 120.167 28.6109L121.582 30.0251C125.877 25.7294 125.877 18.7646 121.582 14.4688L120.167 15.883ZM107.92 3.63604L120.167 15.883L121.582 14.4688L109.335 2.22182L107.92 3.63604Z" stroke="none" mask="url(#path-1-inside-1_351_9)"/>
</svg>
